<svg xmlns="http://www.w3.org/2000/svg" viewBox="0 0 320 320" role="img" aria-labelledby="title desc">
  <title id="title">사회 참여형 캐릭터</title>
  <desc id="desc">확성기와 하트를 든 사회 참여형 캐릭터</desc>
  <rect width="320" height="320" rx="64" fill="#eefbf3"/>
  <circle cx="160" cy="116" r="58" fill="#ffd4b8"/>
  <path d="M97 120c15-59 102-76 128-8-36-16-83-15-128 8z" fill="#2b201a"/>
  <circle cx="138" cy="124" r="7" fill="#050505"/>
  <circle cx="182" cy="124" r="7" fill="#050505"/>
  <path d="M140 154c13 12 27 12 40 0" fill="none" stroke="#050505" stroke-width="8" stroke-linecap="round"/>
  <path d="M74 286c9-57 47-94 86-94s77 37 86 94H74z" fill="#1f5cff"/>
  <path d="M204 205l70-25v74l-70-25v-24z" fill="#ffffff" stroke="#050505" stroke-width="9" stroke-linejoin="round"/>
  <path d="M202 205h-34c-12 0-22 10-22 22s10 22 22 22h34v-44z" fill="#ff5a1f" stroke="#050505" stroke-width="9"/>
  <path d="M104 210c-10-17-38-11-38 11 0 26 38 44 38 44s38-18 38-44c0-22-28-28-38-11z" fill="#ffd84a" stroke="#050505" stroke-width="8" stroke-linejoin="round"/>
</svg>
